<svg width="298" height="83" viewBox="0 0 298 83" fill="none" xmlns="http://www.w3.org/2000/svg">
<path d="M15.504 66V27.376H0.272V18.4H41.752V27.376H26.52V66H15.504ZM70.1351 66.816C66.3724 66.816 62.8818 66.204 59.6631 64.98C56.4898 63.756 53.7244 62.0333 51.3671 59.812C49.0551 57.5907 47.2418 54.984 45.9271 51.992C44.6578 49 44.0231 45.736 44.0231 42.2C44.0231 38.664 44.6578 35.4 45.9271 32.408C47.2418 29.416 49.0778 26.8093 51.4351 24.588C53.7924 22.3667 56.5578 20.644 59.7311 19.42C62.9044 18.196 66.3498 17.584 70.0671 17.584C73.8298 17.584 77.2751 18.196 80.4031 19.42C83.5764 20.644 86.3191 22.3667 88.6311 24.588C90.9884 26.8093 92.8244 29.416 94.1391 32.408C95.4538 35.3547 96.1111 38.6187 96.1111 42.2C96.1111 45.736 95.4538 49.0227 94.1391 52.06C92.8244 55.052 90.9884 57.6587 88.6311 59.88C86.3191 62.056 83.5764 63.756 80.4031 64.98C77.2751 66.204 73.8524 66.816 70.1351 66.816ZM70.0671 57.432C72.1978 57.432 74.1471 57.0693 75.9151 56.344C77.7284 55.6187 79.3151 54.576 80.6751 53.216C82.0351 51.856 83.0778 50.2467 83.8031 48.388C84.5738 46.5293 84.9591 44.4667 84.9591 42.2C84.9591 39.9333 84.5738 37.8707 83.8031 36.012C83.0778 34.1533 82.0351 32.544 80.6751 31.184C79.3604 29.824 77.7964 28.7813 75.9831 28.056C74.1698 27.3307 72.1978 26.968 70.0671 26.968C67.9364 26.968 65.9644 27.3307 64.1511 28.056C62.3831 28.7813 60.8191 29.824 59.4591 31.184C58.0991 32.544 57.0338 34.1533 56.2631 36.012C55.5378 37.8707 55.1751 39.9333 55.1751 42.2C55.1751 44.4213 55.5378 46.484 56.2631 48.388C57.0338 50.2467 58.0764 51.856 59.3911 53.216C60.7511 54.576 62.3378 55.6187 64.1511 56.344C65.9644 57.0693 67.9364 57.432 70.0671 57.432ZM104.39 66V18.4H113.502L133.766 51.992H128.938L148.862 18.4H157.906L158.042 66H147.706L147.638 34.244H149.542L133.63 60.968H128.666L112.414 34.244H114.726V66H104.39Z" fill="#F2F2F2"/>
<path d="M204 4L168 80H186L204 41L223 80H241L204 4Z" fill="url(#paint0_linear_2602_57)"/>
<path d="M273.628 66.816C269.865 66.816 266.397 66.2267 263.224 65.048C260.096 63.824 257.353 62.1013 254.996 59.88C252.684 57.6587 250.871 55.052 249.556 52.06C248.287 49.068 247.652 45.7813 247.652 42.2C247.652 38.6187 248.287 35.332 249.556 32.34C250.871 29.348 252.707 26.7413 255.064 24.52C257.421 22.2987 260.187 20.5987 263.36 19.42C266.533 18.196 270.024 17.584 273.832 17.584C278.048 17.584 281.833 18.2867 285.188 19.692C288.588 21.0973 291.444 23.1373 293.756 25.812L286.684 32.34C284.961 30.5267 283.08 29.1893 281.04 28.328C279 27.4213 276.779 26.968 274.376 26.968C272.064 26.968 269.956 27.3307 268.052 28.056C266.148 28.7813 264.493 29.824 263.088 31.184C261.728 32.544 260.663 34.1533 259.892 36.012C259.167 37.8707 258.804 39.9333 258.804 42.2C258.804 44.4213 259.167 46.4613 259.892 48.32C260.663 50.1787 261.728 51.8107 263.088 53.216C264.493 54.576 266.125 55.6187 267.984 56.344C269.888 57.0693 271.973 57.432 274.24 57.432C276.416 57.432 278.524 57.092 280.564 56.412C282.649 55.6867 284.667 54.4853 286.616 52.808L292.872 60.764C290.288 62.7133 287.273 64.2093 283.828 65.252C280.428 66.2947 277.028 66.816 273.628 66.816ZM282.808 59.336V41.452H292.872V60.764L282.808 59.336Z" fill="#F2F2F2"/>
<defs>
<linearGradient id="paint0_linear_2602_57" x1="187" y1="2" x2="247" y2="80" gradientUnits="userSpaceOnUse">
<stop stop-color="#0A2E69"/>
<stop offset="1" stop-color="#C15B28"/>
</linearGradient>
</defs>
</svg>
