<svg width="340" height="127" viewBox="0 0 340 127" fill="none" xmlns="http://www.w3.org/2000/svg">
<path d="M15.504 66V27.376H0.272V18.4H41.752V27.376H26.52V66H15.504ZM70.1351 66.816C66.3724 66.816 62.8818 66.204 59.6631 64.98C56.4898 63.756 53.7244 62.0333 51.3671 59.812C49.0551 57.5907 47.2418 54.984 45.9271 51.992C44.6578 49 44.0231 45.736 44.0231 42.2C44.0231 38.664 44.6578 35.4 45.9271 32.408C47.2418 29.416 49.0778 26.8093 51.4351 24.588C53.7924 22.3667 56.5578 20.644 59.7311 19.42C62.9044 18.196 66.3498 17.584 70.0671 17.584C73.8298 17.584 77.2751 18.196 80.4031 19.42C83.5764 20.644 86.3191 22.3667 88.6311 24.588C90.9884 26.8093 92.8244 29.416 94.1391 32.408C95.4538 35.3547 96.1111 38.6187 96.1111 42.2C96.1111 45.736 95.4538 49.0227 94.1391 52.06C92.8244 55.052 90.9884 57.6587 88.6311 59.88C86.3191 62.056 83.5764 63.756 80.4031 64.98C77.2751 66.204 73.8524 66.816 70.1351 66.816ZM70.0671 57.432C72.1978 57.432 74.1471 57.0693 75.9151 56.344C77.7284 55.6187 79.3151 54.576 80.6751 53.216C82.0351 51.856 83.0778 50.2467 83.8031 48.388C84.5738 46.5293 84.9591 44.4667 84.9591 42.2C84.9591 39.9333 84.5738 37.8707 83.8031 36.012C83.0778 34.1533 82.0351 32.544 80.6751 31.184C79.3604 29.824 77.7964 28.7813 75.9831 28.056C74.1698 27.3307 72.1978 26.968 70.0671 26.968C67.9364 26.968 65.9644 27.3307 64.1511 28.056C62.3831 28.7813 60.8191 29.824 59.4591 31.184C58.0991 32.544 57.0338 34.1533 56.2631 36.012C55.5378 37.8707 55.1751 39.9333 55.1751 42.2C55.1751 44.4213 55.5378 46.484 56.2631 48.388C57.0338 50.2467 58.0764 51.856 59.3911 53.216C60.7511 54.576 62.3378 55.6187 64.1511 56.344C65.9644 57.0693 67.9364 57.432 70.0671 57.432ZM104.39 66V18.4H113.502L133.766 51.992H128.938L148.862 18.4H157.906L158.042 66H147.706L147.638 34.244H149.542L133.63 60.968H128.666L112.414 34.244H114.726V66H104.39Z" fill="#F2F2F2"/>
<path d="M204 4L168 80H186L204 41L223 80H241L204 4Z" fill="url(#paint0_linear_2602_57)"/>
<path d="M273.628 66.816C269.865 66.816 266.397 66.2267 263.224 65.048C260.096 63.824 257.353 62.1013 254.996 59.88C252.684 57.6587 250.871 55.052 249.556 52.06C248.287 49.068 247.652 45.7813 247.652 42.2C247.652 38.6187 248.287 35.332 249.556 32.34C250.871 29.348 252.707 26.7413 255.064 24.52C257.421 22.2987 260.187 20.5987 263.36 19.42C266.533 18.196 270.024 17.584 273.832 17.584C278.048 17.584 281.833 18.2867 285.188 19.692C288.588 21.0973 291.444 23.1373 293.756 25.812L286.684 32.34C284.961 30.5267 283.08 29.1893 281.04 28.328C279 27.4213 276.779 26.968 274.376 26.968C272.064 26.968 269.956 27.3307 268.052 28.056C266.148 28.7813 264.493 29.824 263.088 31.184C261.728 32.544 260.663 34.1533 259.892 36.012C259.167 37.8707 258.804 39.9333 258.804 42.2C258.804 44.4213 259.167 46.4613 259.892 48.32C260.663 50.1787 261.728 51.8107 263.088 53.216C264.493 54.576 266.125 55.6187 267.984 56.344C269.888 57.0693 271.973 57.432 274.24 57.432C276.416 57.432 278.524 57.092 280.564 56.412C282.649 55.6867 284.667 54.4853 286.616 52.808L292.872 60.764C290.288 62.7133 287.273 64.2093 283.828 65.252C280.428 66.2947 277.028 66.816 273.628 66.816ZM282.808 59.336V41.452H292.872V60.764L282.808 59.336Z" fill="#F2F2F2"/>
<path d="M3.679 102.9H8.969C10.9623 102.9 12.419 103.375 13.339 104.326C14.259 105.277 14.719 106.795 14.719 108.88V113.02C14.719 115.105 14.259 116.623 13.339 117.574C12.419 118.525 10.9623 119 8.969 119H3.679V117.183H5.059V104.694H3.679V102.9ZM8.693 117.206C9.39833 117.206 10.004 117.137 10.51 116.999C11.0313 116.861 11.4607 116.631 11.798 116.309C12.1353 115.972 12.3807 115.527 12.534 114.975C12.7027 114.423 12.787 113.725 12.787 112.882V109.018C12.787 108.175 12.7027 107.477 12.534 106.925C12.3807 106.373 12.1353 105.936 11.798 105.614C11.4607 105.277 11.0313 105.039 10.51 104.901C10.004 104.763 9.39833 104.694 8.693 104.694H6.991V117.206H8.693ZM18.245 102.9H27.997V104.694H20.177V110.03H27.859V111.824H20.177V117.206H28.135V119H18.245V102.9ZM30.787 102.9H32.857L37.066 118.172H37.342L41.551 102.9H43.621L39.067 119H35.341L30.787 102.9ZM46.411 102.9H56.163V104.694H48.343V110.03H56.025V111.824H48.343V117.206H56.301V119H46.411V102.9ZM60.333 102.9H62.265V117.206H70.683V119H60.333V102.9ZM73.795 109.156C73.795 107.071 74.2934 105.453 75.29 104.303C76.2867 103.153 77.6744 102.578 79.453 102.578C81.2317 102.578 82.6194 103.153 83.616 104.303C84.6127 105.453 85.111 107.071 85.111 109.156V112.744C85.111 114.891 84.6127 116.524 83.616 117.643C82.6194 118.762 81.2317 119.322 79.453 119.322C77.6744 119.322 76.2867 118.762 75.29 117.643C74.2934 116.524 73.795 114.891 73.795 112.744V109.156ZM79.453 117.528C80.695 117.528 81.6227 117.106 82.236 116.263C82.8647 115.404 83.179 114.185 83.179 112.606V109.294C83.179 107.822 82.8647 106.634 82.236 105.729C81.6227 104.824 80.695 104.372 79.453 104.372C78.211 104.372 77.2757 104.824 76.647 105.729C76.0337 106.634 75.727 107.822 75.727 109.294V112.606C75.727 114.185 76.0337 115.404 76.647 116.263C77.2757 117.106 78.211 117.528 79.453 117.528ZM90.385 112.376V119H88.453V102.9H94.203C95.031 102.9 95.7517 103.023 96.365 103.268C96.9784 103.498 97.4844 103.812 97.883 104.211C98.297 104.61 98.6037 105.077 98.803 105.614C99.0177 106.135 99.125 106.687 99.125 107.27V107.96C99.125 108.543 99.0177 109.102 98.803 109.639C98.6037 110.176 98.297 110.651 97.883 111.065C97.469 111.464 96.9554 111.786 96.342 112.031C95.7287 112.261 95.0157 112.376 94.203 112.376H90.385ZM90.385 110.582H93.973C96.1197 110.582 97.193 109.662 97.193 107.822V107.408C97.193 106.595 96.9247 105.944 96.388 105.453C95.8667 104.947 95.0617 104.694 93.973 104.694H90.385V110.582ZM101.639 102.9H105.319L107.481 118.172H107.757L109.919 102.9H113.599V119H111.805V103.728H111.529L109.367 119H105.871L103.709 103.728H103.433V119H101.639V102.9ZM116.826 102.9H126.578V104.694H118.758V110.03H126.44V111.824H118.758V117.206H126.716V119H116.826V102.9ZM138.936 118.172H139.212V102.9H141.144V119H137.28L132.634 103.728H132.358V119H130.426V102.9H134.29L138.936 118.172ZM144.21 102.9H155.526V104.694H150.834V119H148.902V104.694H144.21V102.9ZM184.336 111.824H182.105V119H176.953C176.186 119 175.504 118.893 174.906 118.678C174.308 118.463 173.81 118.172 173.411 117.804C173.012 117.421 172.706 116.976 172.491 116.47C172.292 115.949 172.192 115.389 172.192 114.791V114.515C172.192 113.641 172.453 112.905 172.974 112.307C173.495 111.694 174.139 111.28 174.906 111.065V110.789C174.139 110.59 173.495 110.191 172.974 109.593C172.453 108.98 172.192 108.236 172.192 107.362V107.086C172.192 106.488 172.292 105.936 172.491 105.43C172.706 104.909 173.012 104.464 173.411 104.096C173.81 103.728 174.308 103.437 174.906 103.222C175.504 103.007 176.186 102.9 176.953 102.9H179.897V104.694H177.091C176.186 104.694 175.45 104.924 174.883 105.384C174.316 105.829 174.032 106.442 174.032 107.224V107.362C174.032 108.19 174.3 108.842 174.837 109.317C175.374 109.792 176.102 110.03 177.022 110.03H180.173V107.592H182.105V110.03H184.336V111.824ZM180.173 117.206V111.824H177.022C176.102 111.824 175.374 112.069 174.837 112.56C174.3 113.035 174.032 113.687 174.032 114.515V114.653C174.032 115.45 174.316 116.079 174.883 116.539C175.45 116.984 176.186 117.206 177.091 117.206H180.173ZM200.841 102.9H206.131C208.124 102.9 209.581 103.375 210.501 104.326C211.421 105.277 211.881 106.795 211.881 108.88V113.02C211.881 115.105 211.421 116.623 210.501 117.574C209.581 118.525 208.124 119 206.131 119H200.841V117.183H202.221V104.694H200.841V102.9ZM205.855 117.206C206.56 117.206 207.166 117.137 207.672 116.999C208.193 116.861 208.623 116.631 208.96 116.309C209.297 115.972 209.543 115.527 209.696 114.975C209.865 114.423 209.949 113.725 209.949 112.882V109.018C209.949 108.175 209.865 107.477 209.696 106.925C209.543 106.373 209.297 105.936 208.96 105.614C208.623 105.277 208.193 105.039 207.672 104.901C207.166 104.763 206.56 104.694 205.855 104.694H204.153V117.206H205.855ZM215.407 102.9H225.159V104.694H217.339V110.03H225.021V111.824H217.339V117.206H225.297V119H215.407V102.9ZM231.215 112.376V119H229.283V102.9H235.033C235.861 102.9 236.582 103.023 237.195 103.268C237.808 103.498 238.314 103.812 238.713 104.211C239.127 104.61 239.434 105.077 239.633 105.614C239.848 106.135 239.955 106.687 239.955 107.27V107.96C239.955 108.543 239.848 109.102 239.633 109.639C239.434 110.176 239.127 110.651 238.713 111.065C238.299 111.464 237.785 111.786 237.172 112.031C236.559 112.261 235.846 112.376 235.033 112.376H231.215ZM231.215 110.582H234.803C236.95 110.582 238.023 109.662 238.023 107.822V107.408C238.023 106.595 237.755 105.944 237.218 105.453C236.697 104.947 235.892 104.694 234.803 104.694H231.215V110.582ZM243.412 102.9H245.344V117.206H253.762V119H243.412V102.9ZM256.874 109.156C256.874 107.071 257.372 105.453 258.369 104.303C259.366 103.153 260.753 102.578 262.532 102.578C264.311 102.578 265.698 103.153 266.695 104.303C267.692 105.453 268.19 107.071 268.19 109.156V112.744C268.19 114.891 267.692 116.524 266.695 117.643C265.698 118.762 264.311 119.322 262.532 119.322C260.753 119.322 259.366 118.762 258.369 117.643C257.372 116.524 256.874 114.891 256.874 112.744V109.156ZM262.532 117.528C263.774 117.528 264.702 117.106 265.315 116.263C265.944 115.404 266.258 114.185 266.258 112.606V109.294C266.258 107.822 265.944 106.634 265.315 105.729C264.702 104.824 263.774 104.372 262.532 104.372C261.29 104.372 260.355 104.824 259.726 105.729C259.113 106.634 258.806 107.822 258.806 109.294V112.606C258.806 114.185 259.113 115.404 259.726 116.263C260.355 117.106 261.29 117.528 262.532 117.528ZM275.649 113.342H275.235L270.198 102.9H272.36L276.477 111.686H276.753L280.87 102.9H283.032L277.995 113.342H277.581V119H275.649V113.342ZM284.718 102.9H288.398L290.56 118.172H290.836L292.998 102.9H296.678V119H294.884V103.728H294.608L292.446 119H288.95L286.788 103.728H286.512V119H284.718V102.9ZM299.905 102.9H309.657V104.694H301.837V110.03H309.519V111.824H301.837V117.206H309.795V119H299.905V102.9ZM322.015 118.172H322.291V102.9H324.223V119H320.359L315.713 103.728H315.437V119H313.505V102.9H317.369L322.015 118.172ZM327.289 102.9H338.605V104.694H333.913V119H331.981V104.694H327.289V102.9Z" fill="#B5B5B5"/>
<defs>
<linearGradient id="paint0_linear_2602_57" x1="187" y1="2" x2="247" y2="80" gradientUnits="userSpaceOnUse">
<stop stop-color="#0A2E69"/>
<stop offset="1" stop-color="#C15B28"/>
</linearGradient>
</defs>
</svg>
